<svg width="24" height="24" viewBox="0 0 24 24" fill="none" xmlns="http://www.w3.org/2000/svg">
<g id="music-note-1-fill">
<path id="music-note-1-fill_2" d="M21.25 3.00055V16.0006C21.25 18.0706 19.57 19.7506 17.5 19.7506C15.43 19.7506 13.75 18.0706 13.75 16.0006C13.75 13.9306 15.43 12.2506 17.5 12.2506C18.35 12.2506 19.13 12.5305 19.75 13.0105V4.05055C18.72 4.39055 17 4.90056 15.13 5.24056C13.08 5.61056 11.24 5.71056 10.25 5.74056V18.0006C10.25 20.0706 8.57 21.7506 6.5 21.7506C4.43 21.7506 2.75 20.0706 2.75 18.0006C2.75 15.9306 4.43 14.2506 6.5 14.2506C7.35 14.2506 8.13 14.5305 8.75 15.0105V5.00055C8.75 4.80055 8.83003 4.61055 8.97003 4.47055C9.12003 4.32055 9.31001 4.25055 9.51001 4.25055C9.54001 4.25055 12.02 4.28055 14.87 3.76055C17.69 3.25055 20.21 2.31055 20.24 2.30055C20.47 2.21055 20.72 2.24056 20.93 2.38056C21.13 2.52056 21.25 2.75055 21.25 3.00055Z" fill="black"/>
</g>
</svg>
